<svg width="32" height="32" viewBox="0 0 32 32" fill="none" xmlns="http://www.w3.org/2000/svg">
<path d="M19.7328 8.5332C20.4272 8.5332 21.0139 8.98066 21.2347 9.59985H26.7643C26.9851 8.98066 27.5718 8.5332 28.2662 8.5332C29.1483 8.5332 29.8662 9.25106 29.8662 10.1332C29.8662 11.0153 29.1483 11.7332 28.2662 11.7332C27.5718 11.7332 26.9851 11.2857 26.7643 10.6665H21.2342C21.0134 11.2857 20.4267 11.7332 19.7323 11.7332C18.8502 11.7332 18.1323 11.0153 18.1323 10.1332C18.1323 9.25106 18.8507 8.5332 19.7328 8.5332ZM28.2662 10.6665C28.5601 10.6665 28.7995 10.4276 28.7995 10.1332C28.7995 9.83878 28.5601 9.59985 28.2662 9.59985C27.9723 9.59985 27.7329 9.83878 27.7329 10.1332C27.7329 10.4276 27.9723 10.6665 28.2662 10.6665ZM19.7328 10.6665C20.0267 10.6665 20.2662 10.4276 20.2662 10.1332C20.2662 9.83878 20.0267 9.59985 19.7328 9.59985C19.439 9.59985 19.1995 9.83878 19.1995 10.1332C19.1995 10.4276 19.439 10.6665 19.7328 10.6665Z" fill="#00B2FF"/>
<path d="M15.4664 11.8313V8.5332C15.4664 8.39133 15.5224 8.25587 15.6227 8.15614L17.756 6.02284C17.8558 5.92258 17.9918 5.86658 18.1331 5.86658H19.8312C20.052 5.24739 20.6387 4.79993 21.3331 4.79993C22.2152 4.79993 22.9331 5.51778 22.9331 6.3999C22.9331 7.28202 22.2152 7.99987 21.3331 7.99987C20.6387 7.99987 20.052 7.55241 19.8312 6.93322H18.3539L16.5331 8.75399V11.8313C17.1523 12.0521 17.5998 12.6387 17.5998 13.3331C17.5998 14.2152 16.8819 14.9331 15.9997 14.9331C15.1176 14.9331 14.3997 14.2152 14.3997 13.3331C14.3997 12.6387 14.8472 12.0521 15.4664 11.8313ZM21.3331 6.93322C21.627 6.93322 21.8664 6.6943 21.8664 6.3999C21.8664 6.10551 21.627 5.86658 21.3331 5.86658C21.0392 5.86658 20.7998 6.10551 20.7998 6.3999C20.7998 6.6943 21.0392 6.93322 21.3331 6.93322ZM15.9997 13.8664C16.2936 13.8664 16.5331 13.6275 16.5331 13.3331C16.5331 13.0387 16.2936 12.7998 15.9997 12.7998C15.7059 12.7998 15.4664 13.0387 15.4664 13.3331C15.4664 13.6275 15.7059 13.8664 15.9997 13.8664Z" fill="#00B2FF"/>
<path d="M5.86614 13.8664C6.11254 13.8664 6.34294 13.9267 6.55148 14.027L7.46615 13.1123V7.99987C7.46615 7.858 7.52215 7.72254 7.62241 7.62281L12.96 2.2853C12.8598 2.07677 12.7995 1.84637 12.7995 1.59997C12.7995 0.717855 13.5174 0 14.3995 0C15.2816 0 15.9995 0.717855 15.9995 1.59997C15.9995 2.48209 15.2816 3.19995 14.3995 3.19995C14.1531 3.19995 13.9227 3.13968 13.7142 3.03942L8.53282 8.22066V13.3331C8.53282 13.475 8.47682 13.6104 8.37655 13.7102L7.30561 14.7811C7.40588 14.9896 7.46615 15.22 7.46615 15.4664C7.46615 16.3485 6.74828 17.0664 5.86614 17.0664C4.984 17.0664 4.26613 16.3485 4.26613 15.4664C4.26613 14.5843 4.984 13.8664 5.86614 13.8664ZM14.3995 2.1333C14.6934 2.1333 14.9328 1.89437 14.9328 1.59997C14.9328 1.30558 14.6934 1.06665 14.3995 1.06665C14.1056 1.06665 13.8662 1.30558 13.8662 1.59997C13.8662 1.89437 14.1056 2.1333 14.3995 2.1333ZM5.86614 15.9997C6.16001 15.9997 6.39948 15.7608 6.39948 15.4664C6.39948 15.172 6.16001 14.9331 5.86614 14.9331C5.57227 14.9331 5.33281 15.172 5.33281 15.4664C5.33281 15.7608 5.57227 15.9997 5.86614 15.9997Z" fill="#00B2FF"/>
<path d="M1.06634 7.56468V5.33325C1.06634 5.19138 1.12234 5.05592 1.2226 4.95619L4.95595 1.22291C5.05568 1.12265 5.19168 1.06665 5.33302 1.06665H8.09783C8.31863 0.447459 8.9053 0 9.5997 0C10.4818 0 11.1997 0.717855 11.1997 1.59997C11.1997 2.48209 10.4818 3.19995 9.5997 3.19995C8.9053 3.19995 8.31863 2.75249 8.09783 2.1333H5.55382L2.13301 5.55404V7.56468C2.75221 7.78547 3.19968 8.37213 3.19968 9.06652C3.19968 9.94864 2.48181 10.6665 1.59967 10.6665C0.717534 10.6665 -0.000334859 9.94864 -0.000334859 9.06652C-0.000334859 8.37213 0.447133 7.78547 1.06634 7.56468ZM9.5997 2.1333C9.89357 2.1333 10.133 1.89437 10.133 1.59997C10.133 1.30558 9.89357 1.06665 9.5997 1.06665C9.30583 1.06665 9.06637 1.30558 9.06637 1.59997C9.06637 1.89437 9.30583 2.1333 9.5997 2.1333ZM1.59967 9.59984C1.89354 9.59984 2.13301 9.36091 2.13301 9.06652C2.13301 8.77212 1.89354 8.53319 1.59967 8.53319C1.3058 8.53319 1.06634 8.77212 1.06634 9.06652C1.06634 9.36091 1.3058 9.59984 1.59967 9.59984Z" fill="#00B2FF"/>
<path d="M8.53244 28.8982V21.2349C7.91377 21.0141 7.4663 20.4274 7.4663 19.733C7.4663 18.8509 8.18417 18.1331 9.06631 18.1331C9.76071 18.1331 10.3474 18.5805 10.5682 19.1997H16.0978C16.3186 18.5805 16.9053 18.1331 17.5997 18.1331C18.2941 18.1331 18.8807 18.5805 19.1015 19.1997H22.1789L24.1602 17.2184C24.06 17.0099 23.9997 16.7795 23.9997 16.5331C23.9997 15.651 24.7176 14.9331 25.5997 14.9331C26.4818 14.9331 27.1997 15.651 27.1997 16.5331C27.1997 17.4152 26.4818 18.1331 25.5997 18.1331C25.3533 18.1331 25.1229 18.0728 24.9144 17.9725L22.7768 20.1101C22.677 20.2104 22.541 20.2664 22.3997 20.2664H19.1015C18.8807 20.8855 18.2941 21.333 17.5997 21.333C16.9053 21.333 16.3186 20.8855 16.0978 20.2664H10.5676C10.4066 20.7181 10.0508 21.0738 9.59911 21.2349V28.8982C10.2183 29.119 10.6658 29.7057 10.6658 30.4001C10.6658 31.2822 9.94791 32 9.06577 32C8.18364 32 7.46577 31.2822 7.46577 30.4001C7.46577 29.7057 7.91324 29.119 8.53244 28.8982ZM25.5997 17.0664C25.8936 17.0664 26.133 16.8275 26.133 16.5331C26.133 16.2387 25.8936 15.9998 25.5997 15.9998C25.3058 15.9998 25.0664 16.2387 25.0664 16.5331C25.0664 16.8275 25.3058 17.0664 25.5997 17.0664ZM17.5997 20.2664C17.8935 20.2664 18.133 20.0274 18.133 19.733C18.133 19.4386 17.8935 19.1997 17.5997 19.1997C17.3058 19.1997 17.0663 19.4386 17.0663 19.733C17.0663 20.0274 17.3058 20.2664 17.5997 20.2664ZM9.06631 30.9328C9.36018 30.9328 9.59964 30.6939 9.59964 30.3995C9.59964 30.1051 9.36018 29.8662 9.06631 29.8662C8.77244 29.8662 8.53297 30.1051 8.53297 30.3995C8.53297 30.6939 8.77244 30.9328 9.06631 30.9328ZM9.06631 20.2664C9.36018 20.2664 9.59964 20.0274 9.59964 19.733C9.59964 19.4386 9.36018 19.1997 9.06631 19.1997C8.77244 19.1997 8.53297 19.4386 8.53297 19.733C8.53297 20.0274 8.77244 20.2664 9.06631 20.2664Z" fill="#00B2FF"/>
<path d="M11.1995 10.7646V9.06652C11.1995 8.92465 11.2555 8.78919 11.3558 8.68946L17.7601 2.2853C17.6598 2.07677 17.5995 1.84637 17.5995 1.59997C17.5995 0.717855 18.3174 0 19.1995 0C19.8939 0 20.4806 0.447459 20.7014 1.06665H22.9329C23.2273 1.06665 23.4662 1.30505 23.4662 1.59997V2.97915L25.4476 4.96045C25.6561 4.86019 25.8865 4.79992 26.1329 4.79992C27.015 4.79992 27.7329 5.51778 27.7329 6.3999C27.7329 7.28201 27.015 7.99987 26.1329 7.99987C25.2508 7.99987 24.5329 7.28201 24.5329 6.3999C24.5329 6.1535 24.5932 5.9231 24.6934 5.71457L22.5558 3.57701C22.4556 3.47728 22.3996 3.34181 22.3996 3.19995V2.1333H20.7014C20.4806 2.75249 19.8939 3.19995 19.1995 3.19995C18.9531 3.19995 18.7227 3.13968 18.5142 3.03942L12.2662 9.28731V10.7646C12.8854 10.9854 13.3329 11.5721 13.3329 12.2665C13.3329 13.1486 12.615 13.8664 11.7329 13.8664C10.8507 13.8664 10.1328 13.1486 10.1328 12.2665C10.1328 11.5721 10.5803 10.9854 11.1995 10.7646ZM26.1329 6.93322C26.4268 6.93322 26.6662 6.69429 26.6662 6.3999C26.6662 6.1055 26.4268 5.86657 26.1329 5.86657C25.839 5.86657 25.5996 6.1055 25.5996 6.3999C25.5996 6.69429 25.839 6.93322 26.1329 6.93322ZM19.1995 2.1333C19.4934 2.1333 19.7329 1.89437 19.7329 1.59997C19.7329 1.30558 19.4934 1.06665 19.1995 1.06665C18.9057 1.06665 18.6662 1.30558 18.6662 1.59997C18.6662 1.89437 18.9057 2.1333 19.1995 2.1333ZM11.7329 12.7998C12.0267 12.7998 12.2662 12.5609 12.2662 12.2665C12.2662 11.9721 12.0267 11.7331 11.7329 11.7331C11.439 11.7331 11.1995 11.9721 11.1995 12.2665C11.1995 12.5609 11.439 12.7998 11.7329 12.7998Z" fill="#00B2FF"/>
<path d="M12.7994 14.9331C13.4938 14.9331 14.0805 15.3805 14.3013 15.9997H20.5787L23.6224 12.9561C23.7221 12.8558 23.8581 12.7998 23.9995 12.7998H29.6454L30.9328 11.5123V7.15402L26.8182 3.03942C26.6096 3.13968 26.3792 3.19995 26.1328 3.19995C25.2507 3.19995 24.5328 2.48209 24.5328 1.59997C24.5328 0.717855 25.2507 0 26.1328 0C27.015 0 27.7328 0.717855 27.7328 1.59997C27.7328 1.84637 27.6726 2.07677 27.5723 2.2853L31.8432 6.55616C31.9435 6.65589 31.9995 6.79135 31.9995 6.93322V11.7331C31.9995 11.875 31.9435 12.0105 31.8432 12.1102L30.2432 13.7102C30.1435 13.8104 30.0075 13.8664 29.8662 13.8664H24.2203L21.1765 16.9101C21.0768 17.0104 20.9408 17.0664 20.7995 17.0664H14.3013C14.0805 17.6856 13.4938 18.133 12.7994 18.133C11.9173 18.133 11.1994 17.4152 11.1994 16.5331C11.1994 15.6509 11.9173 14.9331 12.7994 14.9331ZM26.1328 1.06665C25.839 1.06665 25.5995 1.30558 25.5995 1.59997C25.5995 1.89437 25.839 2.1333 26.1328 2.1333C26.4267 2.1333 26.6662 1.89437 26.6662 1.59997C26.6662 1.30558 26.4267 1.06665 26.1328 1.06665ZM12.7994 17.0664C13.0933 17.0664 13.3328 16.8275 13.3328 16.5331C13.3328 16.2387 13.0933 15.9997 12.7994 15.9997C12.5056 15.9997 12.2661 16.2387 12.2661 16.5331C12.2661 16.8275 12.5056 17.0664 12.7994 17.0664Z" fill="#00B2FF"/>
<path d="M1.60011 12.7998C1.84651 12.7998 2.07691 12.8601 2.28544 12.9603L4.26678 10.979V7.90174C3.64758 7.68095 3.20011 7.09429 3.20011 6.3999C3.20011 5.51778 3.91798 4.79993 4.80012 4.79993C5.68226 4.79993 6.40013 5.51778 6.40013 6.3999C6.40013 7.09429 5.95266 7.68095 5.33346 7.90174V11.1998C5.33346 11.3417 5.27746 11.4772 5.17719 11.5769L3.03958 13.7144C3.13985 13.923 3.20011 14.1534 3.20011 14.3998C3.20011 15.0942 2.75265 15.6808 2.13344 15.9016V16.3123L6.24386 20.4226C6.34413 20.5223 6.40013 20.6578 6.40013 20.7997V21.4311C7.01933 21.6519 7.4668 22.2386 7.4668 22.933C7.4668 23.6273 7.01933 24.214 6.40013 24.4348V25.6982C7.01933 25.919 7.4668 26.5057 7.4668 27.2001C7.4668 28.0822 6.74893 28.8001 5.86679 28.8001C4.98465 28.8001 4.26678 28.0822 4.26678 27.2001C4.26678 26.5057 4.71425 25.919 5.33346 25.6982V24.4348C4.71425 24.214 4.26678 23.6273 4.26678 22.933C4.26678 22.2386 4.71425 21.6519 5.33346 21.4311V21.0205L1.22304 16.9101C1.12277 16.8104 1.06677 16.6749 1.06677 16.5331V15.9016C0.447571 15.6808 0.000102282 15.0942 0.000102282 14.3998C0.000102282 13.5176 0.717972 12.7998 1.60011 12.7998ZM4.80012 6.93322C5.09399 6.93322 5.33346 6.6943 5.33346 6.3999C5.33346 6.10551 5.09399 5.86658 4.80012 5.86658C4.50625 5.86658 4.26678 6.10551 4.26678 6.3999C4.26678 6.6943 4.50625 6.93322 4.80012 6.93322ZM5.86679 27.7329C6.16066 27.7329 6.40013 27.494 6.40013 27.1996C6.40013 26.9052 6.16066 26.6662 5.86679 26.6662C5.57292 26.6662 5.33346 26.9052 5.33346 27.1996C5.33346 27.494 5.57292 27.7329 5.86679 27.7329ZM5.86679 23.4663C6.16066 23.4663 6.40013 23.2274 6.40013 22.933C6.40013 22.6386 6.16066 22.3996 5.86679 22.3996C5.57292 22.3996 5.33346 22.6386 5.33346 22.933C5.33346 23.2274 5.57292 23.4663 5.86679 23.4663ZM1.60011 14.9331C1.89398 14.9331 2.13344 14.6942 2.13344 14.3998C2.13344 14.1054 1.89398 13.8664 1.60011 13.8664C1.30624 13.8664 1.06677 14.1054 1.06677 14.3998C1.06677 14.6942 1.30624 14.9331 1.60011 14.9331Z" fill="#00B2FF"/>
</svg>
